<?xml version="1.0" encoding="UTF-8" standalone="no"?>
<!-- Generator: Adobe Illustrator 22.1.0, SVG Export Plug-In . SVG Version: 6.00 Build 0)  -->

<svg
   version="1.1"
   id="Capa_1"
   x="0px"
   y="0px"
   viewBox="0 0 50.8 50.4"
   style="enable-background:new 0 0 50.8 50.4;"
   xml:space="preserve"
   sodipodi:docname="logo.svg"
   inkscape:version="1.2.2 (b0a8486541, 2022-12-01)"
   xmlns:inkscape="http://www.inkscape.org/namespaces/inkscape"
   xmlns:sodipodi="http://sodipodi.sourceforge.net/DTD/sodipodi-0.dtd"
   xmlns="http://www.w3.org/2000/svg"
   xmlns:svg="http://www.w3.org/2000/svg"><defs
   id="defs11" /><sodipodi:namedview
   id="namedview9"
   pagecolor="#505050"
   bordercolor="#eeeeee"
   borderopacity="1"
   inkscape:showpageshadow="0"
   inkscape:pageopacity="0"
   inkscape:pagecheckerboard="0"
   inkscape:deskcolor="#505050"
   showgrid="false"
   inkscape:zoom="5.8715115"
   inkscape:cx="24.865829"
   inkscape:cy="21.970493"
   inkscape:window-width="1920"
   inkscape:window-height="1017"
   inkscape:window-x="-8"
   inkscape:window-y="418"
   inkscape:window-maximized="1"
   inkscape:current-layer="g4" />
<g
   id="g6">
	<g
   id="g4">
		<path
   d="M25.4,0.4C11.7,0.4,0.6,11.5,0.6,25.2C0.6,38.9,11.7,50,25.4,50c13.7,0,24.8-11.1,24.8-24.8C50.2,11.5,39.1,0.4,25.4,0.4z     M39.1,23.4L39.1,23.4l-7.2,5.2l2.8,8.5c0,0.1,0.1,0.3,0.1,0.4c0,0.7-0.6,1.3-1.3,1.3c-0.3,0-0.6-0.1-0.8-0.3l-7.2-5.2l-7.2,5.2    c-0.2,0.2-0.5,0.3-0.8,0.3c-0.7,0-1.3-0.6-1.3-1.3c0-0.1,0-0.3,0.1-0.4l2.8-8.5l-7.2-5.2v0c-0.3-0.2-0.6-0.6-0.6-1.1    c0-0.7,0.6-1.3,1.3-1.3h8.9l2.8-8.4c0.2-0.5,0.7-0.9,1.3-0.9s1.1,0.4,1.3,0.9l2.8,8.4h8.9c0.7,0,1.3,0.6,1.3,1.3    C39.7,22.7,39.4,23.1,39.1,23.4z"
   id="path2"
   style="fill:#0060df;fill-opacity:1;stroke:#2b2a33;stroke-opacity:1" />
	</g>
</g>
</svg>
